<?xml version="1.0" encoding="UTF-8"?>
<svg xmlns="http://www.w3.org/2000/svg" id="Layer_1" data-name="Layer 1" viewBox="0 0 35 35">
    <!-- Background Circle -->
    <circle cx="17.5" cy="17.5" r="17.5" fill="#008148"/>

    <!-- Image size: 24x24 -->
    <!-- <path d="m22.769,15c-5.108,0-8.086,2.179-9.769,4.225v-3.295c3.94-.495,7-3.859,7-7.931C20,3.589,16.411,0,12,0S4,3.589,4,8c0,4.072,3.06,7.436,7,7.931v3.292c-1.682-2.046-4.656-4.223-9.756-4.223H.028l.234,1.192c1.228,6.25,7.316,7.833,10.99,7.833.264,0,.512-.01.748-.026.236.016.484.026.748.026,3.678,0,9.773-1.583,11.002-7.832l.234-1.193h-1.216ZM6,8c0-3.309,2.691-6,6-6s6,2.691,6,6-2.691,6-6,6-6-2.691-6-6Zm-3.425,9.059c4.855.439,7.044,3.247,7.931,4.933-2.236-.142-6.449-.953-7.931-4.933Zm10.922,4.929c.889-1.687,3.081-4.49,7.939-4.929-1.483,3.962-5.7,4.78-7.939,4.929Zm-2.297-8.987v-1.2h-.2c-1.201,0-2.189-.925-2.291-2.1h1.62c.086.289.354.5.671.5h2.126c.316,0,.574-.257.574-.574,0-.272-.194-.509-.462-.563l-2.791-.559c-1.013-.203-1.747-1.099-1.747-2.131,0-1.199.975-2.173,2.173-2.173h.327v-1.2h1.6v1.2h.2c1.201,0,2.189.925,2.291,2.1h-1.62c-.086-.289-.354-.5-.671-.5h-2.127c-.316,0-.573.257-.573.574,0,.272.194.509.461.562l2.792.559c1.013.202,1.747,1.099,1.747,2.131,0,1.199-.975,2.173-2.174,2.173h-.326v1.2h-1.6Z" fill="white" transform="translate(5.5, 5.5)"/> -->


    <path d="m12,13c-.442,0-.8-.358-.8-.8v-.4h-.2c-.711,0-1.348-.325-1.77-.833-.418-.504-.063-1.266.592-1.266h.076c.227,0,.434.107.588.274.128.139.312.226.515.226h2.103c.278,0,.532-.187.586-.46.063-.318-.146-.615-.451-.677l-2.791-.559c-1.112-.223-1.888-1.281-1.725-2.439.152-1.08,1.108-1.866,2.199-1.866h.28v-.4c0-.442.358-.8.8-.8s.8.358.8.8v.4h.2c.711,0,1.348.324,1.77.833.418.504.063,1.266-.592,1.266h-.076c-.227,0-.434-.107-.588-.274-.128-.139-.312-.226-.515-.226h-2.102c-.278,0-.532.186-.587.458-.064.318.146.617.449.678l2.792.559c1.112.222,1.889,1.282,1.725,2.439-.153,1.08-1.108,1.865-2.199,1.865h-.28v.4c0,.442-.358.8-.8.8Zm11.908,4.425c-1.862,5.301-7.44,6.575-10.908,6.575h-2c-2.469,0-8.412-.601-10.888-6.521-.225-.537-.147-1.149.207-1.637.417-.573,1.128-.884,1.861-.835,4.506.368,7.232,2.448,8.82,4.354v-3.431c-3.94-.495-7-3.859-7-7.931C4,3.589,7.589,0,12,0s8,3.589,8,8c0,4.072-3.06,7.436-7,7.931v3.43c1.588-1.906,4.314-3.986,8.82-4.354.708-.046,1.397.242,1.812.782.372.482.473,1.078.276,1.636Zm-11.908-3.425c3.309,0,6-2.691,6-6s-2.691-6-6-6-6,2.691-6,6,2.691,6,6,6Zm-1.541,8.05c-.985-1.713-3.371-4.609-8.37-5.043,1.95,4.246,6.155,4.972,8.37,5.043Zm11.463-5.021c-5.012.439-7.396,3.318-8.381,5.023,2.298-.058,6.712-.748,8.381-5.023Z" fill="white" transform="translate(5.5, 5.5)"/>

</svg>
